<svg id="Calque_2" data-name="Calque 2" xmlns="http://www.w3.org/2000/svg" viewBox="0 0 560.78 560.97"><defs><style>.cls-1{fill:#1d1d1b;}</style></defs><title>Logonoir</title><g id="sod"><path class="cls-1" d="M441.4,578.12c-155.06-.11-280.12-125.94-280-281.67.15-154.16,126.15-279.52,280.72-279.3,154.86.22,280.24,126,280.06,281.06C722,452.65,596.05,578.24,441.4,578.12ZM165.86,297.59c-.09,152.2,123.38,275.66,276,275.78,151.88.11,273.16-122.55,275.65-270.92C720.09,149,596.86,22.3,442.91,21.8,289.77,21.3,166,144.82,165.86,297.59Z" transform="translate(-161.43 -17.15)"/><path class="cls-1" d="M530.36,438.41l11.86-6.8c7.45,8.61,14.86,17.1,22.12,25.71.53.63,0,2.16-.05,3.27-.12,2.24-.26,4.47-.4,6.7l1.47.13a35.47,35.47,0,0,1,2.85-5.18c2.53-3.24,2.37-6.42,1-10.12-3.14-8.71-6-17.52-8.75-26.36-.44-1.39-.09-4.13.77-4.58a6.43,6.43,0,0,1,5.22.13c11.16,5.91,10.69,17.86,13.89,27.83.38,1.21-1.59,3.17-2.47,4.78-1.42,2.57-1.06,4.67,2.21,4.47,3.44-.22,4.36,1.61,5.14,4.28,2,6.9,3.93,13.87,6.41,20.61,1.49,4.05.88,6.41-3.2,8a47.12,47.12,0,0,0-5.62,3c-10-8.08-15.34-20.46-27.58-26.41a10.75,10.75,0,0,0-.09-3.25,2.83,2.83,0,0,0-2.09-1.69c-.69,0-1.6,1-2,1.75-.81,1.43-1.17,3.12-2,4.5-2.08,3.26-2,5,2.55,5.08a4.9,4.9,0,0,1,3.57,2.67c3.21,9,6.13,18.17,9.09,27.14-.35.48-.49.85-.75,1-9.58,6.07-9.59,6.08-17.09-2.09-3.72-4.05-7.2-8.33-11.16-12.13-2.41-2.3-5.51-3.87-8.23-5.71-.91-2-1.55-4.8-3.2-6.74-6.87-8.08-14-15.9-21.47-24.22l11.23-6.37c7.31,8.52,14.51,16.78,21.46,25.24.7.86-.26,3-.18,4.51a34.45,34.45,0,0,0,.72,4.34,19.35,19.35,0,0,0,3.26-2.49c3.93-4.65,2.41-9.42.53-14.47C536.17,456.4,533.49,447.72,530.36,438.41Z" transform="translate(-161.43 -17.15)"/><path class="cls-1" d="M567.64,417.29c8.66-12,8.66-12,22-8.28,3.3.92,6.58,1.92,9.87,2.86s7,1.22,9.77,3c2.37,1.47,3.71,4.6,4.77,6l18-1.73.51-1.56-11.67-6.17c-1.5-1.8-3.34-4.79-5.89-6.92-7.5-6.23-15.27-12.11-23.19-18.33l7.75-9.83c8.72,6.8,17.31,13.06,25.26,20.06,1.78,1.57,1.29,5.72,1.93,9.16.15,0,1.2.43,1.74.07,5.09-3.3,8.52-.21,12.18,2.79,5.57,4.56,11.32,8.9,17.49,13.74-2.67,3.46-5.06,7-7.93,10-.81.86-3.14.77-4.61.42-8.33-1.95-16.58-4.29-24.94-6.12-3.66-.8-7.52-.7-12.2-1.09-2.75-4-9.51-6-13.17-2.6,1.31,1.09,2.93,1.92,3.77,3.24,1.17,1.84,2.52,4.08,2.43,6.09-.17,4,1,4.91,4.71,3.66,1.56-.52,4-.82,5.1,0,7.56,5.56,14.89,11.45,22.58,17.46l-7.44,9.59c-10.44-5.77-17.56-16.1-28.7-19.52-2.59-2.84-4.83-5.95-7.69-8.32C582.83,428.93,575.3,423.27,567.64,417.29Z" transform="translate(-161.43 -17.15)"/><path class="cls-1" d="M414.41,94.09c9.65,2.33,8.34,9.22,9.23,15,.95,6.24,1.91,12.48,2.83,18.47-.38.42-.47.63-.61.66-10.77,2.81-10.79,2.81-16.14-6.85-2.91-5.25-5.58-10.65-8.73-15.75a89.59,89.59,0,0,0-6.51-8.41c-1.76-5-3.24-9.12-4.71-13.27l-2.17.38a19.63,19.63,0,0,0,.06,4.54c.73,2.93.63,5.3-2.17,7.22-2.29,1.57-1.33,2.88.58,4.33,1.61,1.21,3.61,2.91,3.92,4.67,1.62,9.09,2.76,18.27,4.14,27.89l-10.07,1.7c-3.92-11.43-1.59-24.06-8.09-35.37,3.82-5.1.12-11.47-.36-17.69-.53-6.81-1.92-13.56-2.91-20.11.54-.5.76-.87,1-.93,11.14-2.21,11.15-2.21,16.47,8.05,3.08,5.94,6,11.94,9.24,17.81,1.82,3.31,3.66,6.4-.09,8.9l12.11,11.37,1.33-.5c-1.37-3.81-2.73-7.62-4.28-12,.2-2,1-5,.7-7.84-1.18-10-2.76-20-4.25-30.44l10.46-1.72c1,6,1.93,11.78,2.83,17.6.49,3.22.63,6.52,1.36,9.68C420.73,86.37,421.35,90.85,414.41,94.09Z" transform="translate(-161.43 -17.15)"/><path class="cls-1" d="M290.71,453.42c2.19-1.76,4.77-3.32,6.67-5.48a47.51,47.51,0,0,0,6.16-8.85c4.7-8.72,12-10.4,21-8.52,10.91,2.29,20.38,11.56,22.05,22.48a13.75,13.75,0,0,1-1.34,8.3,114.85,114.85,0,0,1-10.17,14.83c-.93,1.17-3.54,1.58-5.3,1.44-3.8-.33-4.74,1.63-2.95,4.14,2.46,3.43.9,5.63-1,8.16a35,35,0,0,0-3.22,4.65c-4.56,8.48-11.7,10.22-20.54,8.4-10.69-2.19-20.52-10.92-22.05-21.18-.55-3.68.81-7.93,2.24-11.56,1.22-3.1,4.07-5.52,5.67-8.53C289.21,459.18,289.77,456.24,290.71,453.42Zm27.82,19.66c2.18-1.61,4.58-2.73,6.05-4.58a152.09,152.09,0,0,0,9.17-13.05c3-4.69,1.4-9.89-3.88-13.7-4.9-3.53-10.88-3.19-14.17,1a57.06,57.06,0,0,0-5.53,8c-2.57,4.74-5.8,7.9-11.67,6.76-.19,0-.48.42-1.23,1.13,5.46,7.47-1.42,11.95-4.76,17.46-.18.29-.42.54-.6.84-2.57,4.2-1.82,8.7,2.09,12.5,4.09,4,10.45,5.7,13.48,2.51C312.66,486.53,318.38,481,318.53,473.08Z" transform="translate(-161.43 -17.15)"/><path class="cls-1" d="M281.92,435.62c-1.34,1.18-2.47,1.7-2.5,2.28C278.84,448.9,269,448,262.5,450c-7.3,2.21-13.62-2.91-17.09-8.88-5.13-8.8-8.78-18.47-13.08-27.82,10.23-7,23.48-7.23,32.14-16.36,2.8-.4,6.34-.33,9.43-1.47,9.14-3.37,18.1-7.21,27.94-11.2,3.55,9.8,7.58,19.24,10.31,29,1.77,6.36,1.18,12.93-6.08,16.77-4.57,2.43-8.73,5.63-13.2,8.27C288.74,440.77,284.7,441.45,281.92,435.62ZM244.46,421c2.08,4.69,3.41,9.46,6.15,13.2,1.73,2.35,6.15,5,8.37,4.32,6.85-2.11,14.91-2.83,18-9.28,3.24-.27,5.72-.08,7.94-.76,3.74-1.14,7.33-2.82,11-4.3,7.86-3.21,9.62-7.34,6.49-15.33a42.43,42.43,0,0,1-2.12-5.23c-1-4.28-3.29-4.33-6.76-2.73-4.81,2.21-9.85,3.92-14.68,6.09-2.92,1.31-5.24,1.69-7.85-.89-2.05-2-4.65-2.27-4.58,1.78.07,3.6-1.77,5.1-4.83,6.23C256,416.17,250.57,418.53,244.46,421Z" transform="translate(-161.43 -17.15)"/><path class="cls-1" d="M459.57,502.22c0-4,.31-7.18-.08-10.3a54.69,54.69,0,0,0-2.34-10.51c-2.68-8,0-14,6-19.16,8.14-6.94,22.11-8.75,31.41-4a14.38,14.38,0,0,1,8.19,10.52c.75,3.86,1.38,7.77,2.48,11.54,1.06,3.59,1.35,6.45-2.31,8.95-2.34,1.59-1.61,3.88,1.18,4.27,4.08.58,5.25,3.18,5.71,6.63a17.82,17.82,0,0,0,.43,2.53c1.71,6.34,3.67,12.6-1.44,18.51-5.73,6.62-13,9.88-21.56,10.49a25.67,25.67,0,0,1-7.17-.36c-8.49-1.82-13.87-6.53-15.4-15.64C463.85,510.58,464.55,504.27,459.57,502.22ZM492,494c.51-2.41,1.68-4.79,1.34-6.92a153.91,153.91,0,0,0-3.76-16.51c-1.55-5.62-6.54-7.74-13.27-6-6.09,1.6-9.28,6.16-8.09,11.66.95,4.35,1.78,8.74,3,13,.81,2.81.62,4.7-2,6.62-2.73,2-2.61,4.54,1.16,5.29,3.36.67,4.29,2.71,4.79,5.68.54,3.19,1.71,6.27,2.33,9.45,1.09,5.61,5.25,6.78,9.92,6.85,5.16.08,10.16-3.37,11.32-7.35C500.26,510.83,495.82,496.91,492,494Z" transform="translate(-161.43 -17.15)"/><path class="cls-1" d="M393.18,483.88l-12-3.09c.38-1.83.66-3.45,1.05-5.05,1.65-6.66-1.1-11.31-7.78-13.1-6.92-1.85-11.88.9-13.74,7.71-.9,3.3-1.8,6.61-2.48,10-.72,3.6-2,6.29-6.21,7-3.73.61-2.84,3.22-.71,4.63,3.21,2.13,2.77,4.62,1.89,7.57s-1.66,5.95-2.29,9c-1.33,6.33,1.58,10.37,8.63,12.19,6.42,1.67,10.81-.69,12.66-6.93,1.07-3.61,1.8-7.32,3-10.9s.08-4.92-3.54-5.57c-2.46-.45-4.71-2.05-7.49-3.33,9.68-9.81,17.79-.14,26.59-.48-.46,1-.53,1.57-.73,1.62-5.62,1.48-9.28,3.48-2.62,8.7.4.32.41,1.28.41,1.94,0,16.69-10.13,26.25-26.27,23.74a40.14,40.14,0,0,1-16.19-7c-6.2-4.38-8.48-11-5.73-18.7a37.43,37.43,0,0,0,2.16-8.46c.29-2.7-.22-5.48-.36-8,1.48-2.67,3.44-5.5,4.68-8.62,1.32-3.32,2-6.91,2.89-10.38,2.49-9.31,6.28-12.85,15.92-14,10.48-1.23,19.7,1.42,26.85,9.72C397,470.08,396.35,476.53,393.18,483.88Z" transform="translate(-161.43 -17.15)"/><path class="cls-1" d="M434.91,93.23c1.16-4.42,2.56-8,2.95-11.65,1-9.19,1.48-18.42,2.25-28.69,8.82,1.13,17.57,1.43,25.87,3.53s12.57,10.25,11.68,18.79q-.53,5.12-.7,10.26c-.15,4.18-1,7.82-5.83,8.67,0,.83-.21,1.6,0,1.78,7.92,6.13,3.3,14.1,2.74,21.2-.41,5.3-5,8.34-9.65,10.52-1.83.86-3.9,1.79-5.84,1.73-7.84-.21-15.67-.79-23.36-1.23C433.16,115.93,439.07,104.1,434.91,93.23ZM450,63.36c-.27,3.9-.1,7.22-.8,10.35-1.46,6.55,2.1,14.84-6.59,18.72,4.84,6.21,4.79,6.21,3.91,14.55-.34,3.24-.54,6.5-.59,9.75,0,1.06.3,2.61,1,3.12,3.61,2.51,13.87.41,16.13-3.1,2.66-4.13,2.26-18.43.06-21.6,1.28-3.35,2.72-5.93,3.22-8.69.67-3.69.52-7.52.89-11.27.68-6.88-1.54-10-8.3-11C456.27,63.81,453.54,63.68,450,63.36Z" transform="translate(-161.43 -17.15)"/><path class="cls-1" d="M542.22,114.66c2.09-2.13,4.44-4,6.08-6.35,2.73-3.93,4.94-8.22,7.49-12.28,5.4-8.59,16.47-10.44,26.31-4.47,9.14,5.55,12.41,16.23,7.58,24.77a11.58,11.58,0,0,1-1.06,1.76c-4.62,5.74-5.09,15.42-16.46,15.32,5,5.31,2.08,9-.32,12.8-3.69,5.92-6.46,12.58-14.74,13.77-8.86,1.26-16.1-1.6-21.3-8.51s-5.51-14.18-.35-21.46a40.36,40.36,0,0,0,4.14-7.1A77.81,77.81,0,0,0,542.22,114.66Zm24,14.22c8-5,11.32-13.31,14.77-21.12,1.77-4-1.36-7.64-5.25-9.43s-7.8-1.2-10.58,2.43a70.16,70.16,0,0,0-4.32,7c-2.78,4.74-4.76,10.36-11.74,10.37-.2,0-.41.48-.79,1,3.45,3.81,1.72,7.35-.75,11a61.66,61.66,0,0,0-4.66,8c-1.94,4-.45,7.36,2.75,10s7.54,3.77,10.35.84C561.23,143.41,566.07,137.29,566.22,128.88Z" transform="translate(-161.43 -17.15)"/><path class="cls-1" d="M308.57,128.79c3.53,1.94,7,2.73,8.61,4.92,4.29,6,10.55,11.08,9.56,19.78a21.68,21.68,0,0,1-21.64,18.78c-5.64-.1-10.34-2.16-13.63-7a91.9,91.9,0,0,0-6.33-8.75c-1.8-2.06-4.2-3.57-6.33-5.32-1.1-2.68-2-5.88-3.63-8.65a62.5,62.5,0,0,0-7.44-10.48c-6.07-6.66-4.08-19.69,5.61-26.51,9.27-6.52,20.37-5,26.75,3.74,1.91,2.64,3.68,5.38,5.67,8C308.62,121,312,124.49,308.57,128.79Zm-24.8,18c7.81-1.55,10,3.83,13,8.12a54.24,54.24,0,0,0,3.65,5c2.93,3.32,6.48,3.44,10.26,1.63s6.71-5.39,5.14-9c-3.11-7.16-6.63-14.57-14.23-17.43-.75-2.68-.94-5.36-2.19-7.38a152.21,152.21,0,0,0-8.94-12.56c-3.29-4.31-7.69-4.92-12.2-1.93-4.31,2.85-5.36,7.51-2.5,12.09,1.9,3,4,5.95,6.19,8.83C284.61,137.7,288,141.06,283.77,146.78Z" transform="translate(-161.43 -17.15)"/><path class="cls-1" d="M444.24,478.72v-8H415.16l-2.37.41c-.88,0-1.77-.1-2.66-.17l-1,.17a15,15,0,0,1-2.85-.07,17.22,17.22,0,0,1-4.81-.22,9.25,9.25,0,0,0-2.85.4v7.89h16.43c1.67,19,.95,26-2.41,29.89,5.74,11.77.92,24.05,3.31,35.71h11.83c0-8.72-.12-17.11.06-25.5.07-3.36-.32-5.87-4-7.28-2.75-1.06-3.32-3.65-.25-4.73,4.12-1.45,4.27-4.19,4.2-7.65-.14-6.79,0-13.59,0-20.88Z" transform="translate(-161.43 -17.15)"/><path class="cls-1" d="M350.81,109.44c-.6-3.69-.62-6.91-1.67-9.75-3.43-9.27-7.24-18.4-11-27.95l10.31-4.29c4.19,10.61,8.53,21,12.26,31.56.64,1.82-1.33,4.56-2.2,7.21,10.29,2.15,9.67,11.82,12.49,19,2,5-.73,9.74-4,13.69-10.41,12.52-30.6,10.09-34.78-5.12-1.41-5.1-2.13-11.47-7.7-13.3-.56-3.81-.51-7.19-1.6-10.15-3.4-9.29-7.23-18.42-11.05-28l9.47-4,5.37,13.33c1.66,4.13,3.16,8.34,5,12.39s3.53,8-2,12.33c10.45,1.2,10.18,9.68,13.23,15.71,2.47,4.88,6.5,6.54,11.93,4.52,4.32-1.61,6.37-6.18,4.7-11A92.66,92.66,0,0,0,355,114.14C354,112.17,352,110.7,350.81,109.44Z" transform="translate(-161.43 -17.15)"/><path class="cls-1" d="M250.24,147.44,244,155c-.89-.29-1.67-.53-2.44-.79-5.76-2-9.69-.55-12.08,4.33-1.87,3.84.14,9,4.7,11.74,5.6,3.41,11.51,2.24,17.51,1.39,2.59-.37,5.34.49,8,.43a12.59,12.59,0,0,0,4.73-1.25,17.56,17.56,0,0,1,19.84,3.44,17.8,17.8,0,0,1,3.91,19.46c-6.05,14.23-20.2,18.67-32.91,9.8l5.94-7.37c1.71.63,3.4,1.34,5.14,1.89,6.28,2,11.9-1,13.16-7,1.2-5.64-3-12-9.11-11.86s-12.21,2.27-18.34,3.37a37.86,37.86,0,0,1-6.31.36c-2.21,0-4.43-.25-6.63-.19-8,.23-16.4-5.27-19-12.52-2.68-7.51,1-17.14,8.73-23C235.28,142.45,242.91,142.39,250.24,147.44Z" transform="translate(-161.43 -17.15)"/><path class="cls-1" d="M573.6,178.64l-8-8.76c4.35-4,9.17-7.93,13.27-12.46,3.83-4.25,10.28-6.81,9.85-12.7,3.3-2.13,6.19-3.43,8.35-5.5,7.17-6.87,14.08-14,20.83-20.81l25,25.28L636.06,149,620.49,132.1l-17.56,18.33L616,161.79l-9.6,1.51-.48,1.88-8.52-10.45Z" transform="translate(-161.43 -17.15)"/><path class="cls-1" d="M243.64,344.83c-.73-2.81-.6-5.13.53-7.17-.07-.16-.14-.32-.2-.48l-.31-1.79-.64.55-1.45-1.15c.57-1.07,1.07-2.19,1.62-3.27a13.24,13.24,0,0,1,.2-1.54,6.53,6.53,0,0,1,.23-2.34l-1.76,1.4c-4.69-41-1.52-79.56,25.39-113.19-2.21.29-4.18.83-5.12,2.12-11.28,15.42-19.66,32.26-22.91,51.22-4.5,26.19-2.8,52.37,1.48,78.42a169.77,169.77,0,0,0,14,44.53c1,2.1,1.84,4.3,4.29,1.83-3.14-8.19-6.63-16.05-9.16-24.2S245.8,353.12,243.64,344.83Z" transform="translate(-161.43 -17.15)"/><path class="cls-1" d="M600.51,372.63c.35-1.66.35-3.49,1.09-4.95,8.47-16.63,14.45-34,17-52.6,5.35-39.31-3.81-75.27-25-108.37-5.08-7.91-11.21-15.15-16.76-22.77a6.61,6.61,0,0,1-1-4.21c46.77,46.28,65.86,125.09,26.66,193.14Z" transform="translate(-161.43 -17.15)"/><path class="cls-1" d="M650,133.75c74.42,88.94,75.52,220.48,22.06,303.25C726.77,332.73,719.81,231.78,650,133.75Z" transform="translate(-161.43 -17.15)"/><path class="cls-1" d="M185.65,375.61C169,318.07,171.25,261.23,193,205.22Q162.81,289.28,185.65,375.61Z" transform="translate(-161.43 -17.15)"/><path class="cls-1" d="M470.87,126.21c1.57-.34,3.22-1.18,4.7-.94,18,2.84,35.37,7.94,51.42,16.84,1.42.78,2.28,2.59,2.86,4.55-18.63-10-38.44-15.44-58.94-18.86Z" transform="translate(-161.43 -17.15)"/><path class="cls-1" d="M393.28,565.21,346.17,552l.37-1.32,47.12,13.17Z" transform="translate(-161.43 -17.15)"/><path class="cls-1" d="M443.15,568.19,489.4,564l.12,1.39L443,569.61Z" transform="translate(-161.43 -17.15)"/><path class="cls-1" d="M590.49,389.71c.38,4.77-4.29,7.22-6.51,10.74-.72,1.13-2.63,1.51-4,2.24l-.89-1.42,9.57-12.41Z" transform="translate(-161.43 -17.15)"/><path class="cls-1" d="M556.38,163.33c4.49-2.16,6.08,1.1,8.13,3,.27.26-.12,1.71-.61,2.09a2.24,2.24,0,0,1-2.13-.17C560,166.83,558.34,165.16,556.38,163.33Z" transform="translate(-161.43 -17.15)"/><path class="cls-1" d="M610,93.11,623.81,105l-.89,1L609.08,94.12Z" transform="translate(-161.43 -17.15)"/></g><g id="skate"><path id="z" class="cls-1" d="M395.62,365.62c4.38,5,8.85,10.28,16.41,9.24,3.59-.49,7-2.32,10.5-3.54-2.25,4.89-6.9,4.6-11.12,5C405.17,377,396,371.57,395.62,365.62Z" transform="translate(-161.43 -17.15)"/><path id="z-2" data-name="z" class="cls-1" d="M424.51,370.43c1.05-4.82,2.69-9.62,2.91-14.48.14-3.09-1.86-6.27-2.9-9.4C431.17,354.07,431.17,363.19,424.51,370.43Z" transform="translate(-161.43 -17.15)"/><path id="z-3" data-name="z" class="cls-1" d="M402,344c-2,2.9-5,5.55-5.79,8.76-1,4.13-.36,8.7-.42,13.07C391,358.46,394,347.91,402,344Z" transform="translate(-161.43 -17.15)"/><path id="z-4" data-name="z" class="cls-1" d="M424.12,346.15a42.14,42.14,0,0,1-4.41-2c-6-3.55-12-1.9-17.94,0C408.08,338.58,417.41,339.43,424.12,346.15Z" transform="translate(-161.43 -17.15)"/><path id="z-5" data-name="z" class="cls-1" d="M406.08,382.14l-7.52,6.2,5.51,6.94,4-2.31c-2.69,2.32-5.11,5.24-8.21,6.68-1.42.66-5.47-1.14-6.06-2.68-.84-2.21-.57-6.22.95-7.66C398,386.3,402.24,384.46,406.08,382.14Z" transform="translate(-161.43 -17.15)"/><path id="z-6" data-name="z" class="cls-1" d="M373,351.71c.23.89.19,2.05.76,2.61,1.71,1.7,3.65,3.16,5.74,4.92l6.43-3.88c-2.51,2.54-5,5.07-7.54,7.64-2.67,2.76-5.54,4.2-8.87,1.14s-2.49-6.43,0-9.54A21,21,0,0,1,373,351.71Z" transform="translate(-161.43 -17.15)"/><path id="z-7" data-name="z" class="cls-1" d="M371.48,237.58c3-1,6-2.54,9.17-3,4.38-.6,6.34,1.74,5.92,6.09-.81,8.31-14.05,20.05-22.37,19.82-4.06-.11-6.46-2.89-5.29-6.77.93-3.05,2.63-5.87,4-8.79Zm5.27,11.17c-4.45,2.84-8.71,6.63-15,3.2.56,1.85,1.43,4,2.71,4.28,4.67,1,11.95-3.75,12.25-7.58,5-.57,4.92-5,6.06-8.32.21-.62-1.65-1.94-2.56-2.94C382,242.49,378.85,245.49,376.75,248.75Zm-10.55-.87,2,2.49,7.87-7-1.77-2.09Z" transform="translate(-161.43 -17.15)"/><path id="z-8" data-name="z" class="cls-1" d="M411.2,345.62c7.12-.12,13.35,5.92,13.32,12.91,0,6.7-6,12.66-12.82,12.86a12.89,12.89,0,0,1-.5-25.77Zm7.61,18.08c.88-1.45,2.32-2.82,2.51-4.35.54-4.27-1.38-7.57-5.2-9.62-4-2.16-7.78-1.89-11.12,1.44a20.45,20.45,0,0,0-1.71,4.28c-.68,4.12-1.14,8.36,3.18,11C410.35,368.89,414.84,367.8,418.81,363.7Z" transform="translate(-161.43 -17.15)"/><path id="z-9" data-name="z" class="cls-1" d="M418.81,363.7c-4,4.1-8.46,5.19-12.34,2.78-4.32-2.67-3.86-6.91-3.18-11a20.45,20.45,0,0,1,1.71-4.28c3-.41,6.45-2,8.94-1C420,352.43,421,356.36,418.81,363.7Zm-7.26-12.31c-2.4,3.24-4.93,5.15-4.85,7s2.77,3.46,4.32,5.18c1.73-1.58,4.6-3,4.86-4.8S413.72,354.83,411.55,351.39Z" transform="translate(-161.43 -17.15)"/><path id="z-10" data-name="z" class="cls-1" d="M458.68,436.62c-4.38,1.62-7.73-.63-9.68-3.78-1.48-2.38-2.29-6.31-1.37-8.79,1.59-4.27,4.76-8,7.26-11.89l1.55,1c-1.08,1.45-2.28,2.83-3.22,4.36-1.67,2.75-3.75,5.43-4.64,8.43-1.51,5.15,3.23,10.63,8.39,9.16,5.91-1.68,11.36-5,17-7.6-4.73,1.9-9.34,4.27-14.24,5.5a11.46,11.46,0,0,1-8.25-1.44c-3-2-2.12-5.55-.36-8.33s3.74-5.19,5.63-7.77l2.81,5.66c4.58-1.25,9.29-2.2,13.68-3.94,1.32-.52,1.77-3.25,2.62-5-1,.91-2,1.84-3.06,2.72-6.18,5.19-10.85,4.33-14.88-2.65-3.34-5.79-6.76-11.53-10.17-17.28-6-10.18-21.63-17.16-33.47-15-15.25,2.79-27.32-9.68-23.91-24.72.53-2.34,1.26-4.63,1.89-6.94q-2.94,3.47-5.89,6.94c.71.15,2.05.4,2.05.44-2.14,14.21,5.93,21.68,17.58,26.81l16.46-1.94-2.58,5,7.87-3.91.91,1.56-7.92,8.64c1.94-1.4,4.11-2.57,5.77-4.25,3.45-3.47,6.6-3.24,10.92-1.1,7.7,3.81,9.73,11.56,14,17.78,2.15,3.11,2.33,5.13-.52,8.29-5.79,6.39-11,13.36-8,23.06.25.82-1,2.37-1.87,3.23-5.93,5.73-12.16,11.16-17.88,17.09-2,2.09-19.45,14.74-21.71,16,1.52-.34,7.47-3.72,9-4,11.67-8.33,26.21-22.24,33.66-29.28A64.66,64.66,0,0,0,448.5,444a53.24,53.24,0,0,0,4.8,3.75l.47-.51c-3-3.87-6.56-7.46-8.87-11.72-1.41-2.62-.94-6.26-.65-9.5,1.79,10,7.53,14.15,17.24,11.27,4.82-1.43,9.32-3.95,14-6-.17-.19-.33-.38-.49-.58C469.54,432.67,464.09,434.61,458.68,436.62Z" transform="translate(-161.43 -17.15)"/><path class="cls-1" d="M402,445.83" transform="translate(-161.43 -17.15)"/><path id="z-11" data-name="z" class="cls-1" d="M301.75,284.32l15.64-13.56Z" transform="translate(-161.43 -17.15)"/><path id="z-12" data-name="z" class="cls-1" d="M286.46,291.37l-15.61,14.09Z" transform="translate(-161.43 -17.15)"/><path id="z-13" data-name="z" class="cls-1" d="M356.05,229.55l-28.51,24.86c5.64-5.36,11.15-10.87,17-16C348.11,235.16,352.18,232.47,356.05,229.55Z" transform="translate(-161.43 -17.15)"/><path id="z-14" data-name="z" class="cls-1" d="M327.7,254.26,305.88,274Z" transform="translate(-161.43 -17.15)"/><path id="z-15" data-name="z" class="cls-1" d="M317.22,270.91,338,252.71c-.41.86-.6,2-1.28,2.55C330.25,260.53,323.72,265.71,317.22,270.91Z" transform="translate(-161.43 -17.15)"/><path id="z-16" data-name="z" class="cls-1" d="M306.05,273.85l-19.78,17.7Z" transform="translate(-161.43 -17.15)"/><path id="z-17" data-name="z" class="cls-1" d="M284.27,300.3l17.65-16.14Z" transform="translate(-161.43 -17.15)"/><path id="z-18" data-name="z" class="cls-1" d="M395.59,284.31l13.53-15.1L406.38,276c3,5.34,6.55,11.5,10,17.72a46.55,46.55,0,0,1,2.08,5L406.86,280c-.52-.85-1-1.71-1.54-2.58Z" transform="translate(-161.43 -17.15)"/><path id="z-19" data-name="z" class="cls-1" d="M514.73,266.16c-.44.14-1,.52-1.32.38a24.6,24.6,0,0,1-3.16-2.11L553,254.79l-10.12-13.64.51-.48,12.78,15c-12.93,2.87-24.61,5.44-36.29,8.07-1.92.43-3.8,1.11-5.69,1.7a1.32,1.32,0,0,0,.11.47,1.38,1.38,0,0,0,.37.35Z" transform="translate(-161.43 -17.15)"/><path id="z-20" data-name="z" class="cls-1" d="M377.06,379.68q8.22,11.7,16.44,23.4c1.17,1.67,2.29,3.38,3.73,5.5l14-10.46L397,411.81C390.05,400.59,383.56,390.13,377.06,379.68Z" transform="translate(-161.43 -17.15)"/><path id="z-21" data-name="z" class="cls-1" d="M501.1,429.85a55.26,55.26,0,0,1-31,22,16.38,16.38,0,0,1-16.95-4.48l.46-.51c9.17,5.94,18.36,5.14,26.84-.93,7-5.05,13.42-11,20.09-16.58Z" transform="translate(-161.43 -17.15)"/><path id="z-22" data-name="z" class="cls-1" d="M436.78,330.17c-1.06-1-2.43-1.83-3.13-3.05-5-8.66-9.93-17.4-14.82-26.14a8,8,0,0,1-.53-2.39l3.83,4.18,8.36-7.18c7.18,13.9,14.16,27.44,21.15,41l-.57.51-21.25-38.76-7.26,6.13,2.41,4.22c3.37-.28,6.65-.06,8.95,1.56,1,.71.95,4.95-.17,6.34-2.55,3.15-1.62,5.44.2,8.18A55.68,55.68,0,0,1,436.78,330.17Zm-6.48-12.5,1.72.46c.31-2.36,1.26-4.91.64-7-.28-.93-3.72-.91-6.55-1.49C428,313.24,429.14,315.45,430.3,317.67Z" transform="translate(-161.43 -17.15)"/><path id="z-23" data-name="z" class="cls-1" d="M459.16,369.88c-.65-.42-1.58-.68-1.91-1.28C451.12,357.81,445.06,347,439,336.14c2.86,3.69,5.71,7.39,8.66,11.21,8-.73,9.72,1.6,6.47,9.12-.48,1.1-.19,2.53-.33,5.29l6.59-5.91-9.3-18.77.57-.51c3.6,6.4,7.19,12.79,10.87,19.32l-6.95,6.39C456.83,365,458,367.42,459.16,369.88Z" transform="translate(-161.43 -17.15)"/><path id="z-24" data-name="z" class="cls-1" d="M432.92,325.07a2.59,2.59,0,0,1,.06-1.26l-.33.25c.31-2.75.1-4.19.64-5.26,3.68-7.32,2.12-9.75-5.94-9.48l-.34-.49a3.41,3.41,0,0,1-1.71,1q3.75,7.68,7.54,15.35Z" transform="translate(-161.43 -17.15)"/><path id="z-25" data-name="z" class="cls-1" d="M398.85,322.32c-6.88,6.3-13.72,12.65-20.68,18.88-5.35,4.78-10.85,9.39-16.46,14.24L373.58,374a29.22,29.22,0,0,1-4.12-4c-3.26-4.6-6.29-9.36-9.82-14.69,2.84-2.48,5.73-5,8.64-7.55,8.78-7.63,17.54-15.27,26.37-22.85A32.62,32.62,0,0,1,398.85,322.32Z" transform="translate(-161.43 -17.15)"/><path id="z-26" data-name="z" class="cls-1" d="M542.89,241.15A37.29,37.29,0,0,1,540,238.3c-2.18-2.62-4.27-5.31-6.87-8.56,7.29-2.54,14.1-5.05,21-7.14.82-.24,3.13,1.61,3.4,2.8,8.86,37.84,5.68,74-14.25,108.22-6.93,11.87-14.37,23.23-23.61,33.39l-.51-.49c10.86-14.33,21-29.07,28.84-45.37,11.14-23.09,14.56-47.28,11.93-72.5-.85-8.14-2.37-16.22-3.71-25.23l-20.39,6.89,7.55,10.36Z" transform="translate(-161.43 -17.15)"/><path id="z-27" data-name="z" class="cls-1" d="M522.44,175.89c3.72,3.36,7.43,6.74,11.17,10.07,1.11,1,2.32,1.86,3.49,2.79l1.26-1.35c-3.67-4-7.35-8.06-11-12.11-1.66-1.84-3.28-3.73-4.91-5.59,7.88,4.33,12.62,11.64,18.43,18.87l-53.61,20.91,16.53,18.73-.59.6-20.32-19.18,51.64-20.25Z" transform="translate(-161.43 -17.15)"/><path id="z-28" data-name="z" class="cls-1" d="M392.77,335.87a44.55,44.55,0,0,1,4.48-5.17c2.87-2.47,3.38-5.09,1.44-8.27.29-2.14,1.33-4.51.75-6.38-2.78-8.92-6-17.7-8.82-25.82-7.41.89-13.43,1.87-19.48,2.25a15.45,15.45,0,0,1-14.21-6.8c-9.6-13.48-11.5-20.22-1.31-34.86a63.88,63.88,0,0,1,27.45-22.61c12.21-5.27,19.67-2.85,27.53,7.95,5.41,7.44,8,23.68.52,31.15,1-5.25,2.72-10.47,2.93-15.75.28-7.29-2.91-13.53-8.88-19.06-.86,9.52-4.36,17.33-10.83,23.69.92-1.79,2-3.52,2.73-5.38,2.09-5.17,4.71-10.25,5.86-15.63.94-4.44-2.71-8.16-7.25-8.11a32.75,32.75,0,0,0-24.2,10.51L362.89,245c-3.86,5.69-8.05,11.2-11.46,17.15-2.09,3.65-2.52,8.8,1.07,11.29,2.91,2,7.61,2.27,11.39,1.94,3.93-.35,7.71-2.34,11.55-3.62-6.27,5.37-13.71,6.16-21.58,5.33,5,13,12,15.75,24.89,13.62,5.87-1,11.35-4.27,17-6.51l-5,4.74c9.81,18.55,17.06,37.68,2.58,57.66,1.72-4.51,3.43-9,5.57-14.64Z" transform="translate(-161.43 -17.15)"/><path id="z-29" data-name="z" class="cls-1" d="M514.69,266.24l9.7,7.38-91.71,10.45-.59-1.62,51.29-25.21-13.62-14.49,38.4-11.19.47,1.63-37,10.47,15.69,13.23L438.2,281.18l.33.75,80.72-9.22-4.52-6.55Z" transform="translate(-161.43 -17.15)"/><path id="z-30" data-name="z" class="cls-1" d="M459.45,420.84c4.58-1.25,9.29-2.2,13.68-3.94,1.32-.52,1.77-3.25,2.62-5,2.53-3.91,1.83-7.48-.47-11.37-4.59-7.73-8.8-15.7-13.16-23.56,1.86,2.43,3.88,4.76,5.53,7.33,2.11,3.29,3.91,6.77,5.41,9.41,6.79-.81,13.08-1.41,19.32-2.4,1.49-.24,3-1.57,4.14-2.7,7.6-7.33,15.12-14.74,22.66-22.13l.51.49c-5.87,6.38-11.7,12.8-17.64,19.12-2.09,2.23-4.45,4.21-7,6.61,6.91,5.95,13.31,12.48,12.28,21.93-.57,5.22-4.05,10.13-6.21,15.18l-.52-.45a12.62,12.62,0,0,1,1-2.3c9.37-13,3-25.41-7.95-33.08-1.62-1.13-4-1.11-6.1-1.63,8.5,4.81,11.67,11,8,18.16A46.42,46.42,0,0,1,475.34,431l-.49-.57c1.64-1.23,3.31-2.4,4.89-3.68,6.45-5.22,12.28-11,15.31-18.93,1.65-4.34-.33-7.9-3.41-10.51-1.87-1.58-4.73-2-7.15-2.94l-.54,1.39c6.7,1.42,10.18,4.73,9.12,9.69-1.19,5.61-4,10.47-9.49,13.19,2.41-3.51,5.38-6.79,7-10.63.94-2.22.65-6.17-.81-7.85s-5-1.72-7.71-1.9c-1.31-.08-2.7,1.17-4.14,1.85,5.05,4.78,5.76,8.32,1.87,13C474.43,419.44,467.5,425.7,459.45,420.84Z" transform="translate(-161.43 -17.15)"/><path id="z-31" data-name="z" class="cls-1" d="M284.27,300.3l-8.17,6-29.21,24.94-1.45-1.15a38.49,38.49,0,0,1,3.11-5.69c2.12-2.73,4.6-5.2,6.92-7.78l15.38-11.19,15.61-14.09-.19.18,19.78-17.7-.17.17,21.82-19.76-.16.15,28.51-24.86q28.69-24.57,57.41-49.11c4.56-3.88,9.42-7.41,14.14-11.11,1.15-.73,2.33-1.43,3.45-2.2,27.46-19,58.72-19.09,86.33-.23,1.65,1.12,3.48,2,5.23,2.95l-.17-.15c1.63,1.86,3.25,3.75,4.91,5.59,3.66,4.05,7.34,8.07,11,12.11l-1.26,1.35c-1.17-.93-2.38-1.8-3.49-2.79-3.74-3.33-7.45-6.71-11.17-10.07l.17.15c-.33-.56-.52-1.28-1-1.65-16.19-12.75-34.65-18.63-55.14-16.75-9.06.83-18.15,2.88-25.51,9.11l.19-.13q-8.32,6-16.63,12c-7.43,6-15,11.94-22.25,18.15-11.72,10-23.3,20.18-34.87,30.36-8.61,7.58-17.1,15.29-25.69,22.9a41.7,41.7,0,0,1-3.74,2.69l-20.75,18.2.17-.15-15.64,13.56.17-.16Z" transform="translate(-161.43 -17.15)"/></g></svg>